<svg width="256" height="256" viewBox="0 0 256 256" fill="none" xmlns="http://www.w3.org/2000/svg">
<rect width="256" height="256" rx="70" fill="#1A5FF4"/>
<path d="M53.272 60.7169C51.5773 60.1911 49.7657 60.1911 47.8373 60.7169C45.9673 61.3011 44.3602 62.3527 43.0161 63.8716C41.672 65.449 41 67.4061 41 69.7429V176.828C41 179.749 41.8766 182.436 43.6297 184.89C45.3829 187.343 47.662 189.067 50.467 190.06L120.944 214.684C126.32 216.495 131.521 216.437 136.547 214.509L205.533 190.06C208.338 189.067 210.617 187.343 212.37 184.89C214.123 182.436 215 179.749 215 176.828V69.7429C215 67.9319 214.445 66.1792 213.335 64.485C212.224 62.8493 210.705 61.6224 208.776 60.8046C206.906 60.0451 204.861 60.0159 202.64 60.7169L134.005 83.238C132.31 83.8222 130.586 84.1143 128.833 84.1143C127.08 84.1143 125.297 83.8222 123.486 83.238L53.272 60.7169ZM128.131 109.703C130.118 109.703 131.755 110.374 133.04 111.718C134.384 113.062 135.056 114.727 135.056 116.713V177.879C135.056 179.866 134.384 181.56 133.04 182.962C131.755 184.364 130.118 185.065 128.131 185.065C126.145 185.065 124.45 184.364 123.047 182.962C121.645 181.56 120.944 179.866 120.944 177.879V116.713C120.944 114.727 121.645 113.062 123.047 111.718C124.45 110.374 126.145 109.703 128.131 109.703Z" fill="#FFF3FD" fill-opacity="0.922"/>
<path d="M187.651 41C162.113 45.2063 142.274 57.9419 128.131 79.207C120.009 67.8734 111.038 59.198 101.221 53.1807C91.403 47.1634 80.3874 43.1031 68.1738 41V66.4129L123.486 84.2896L124.976 84.7278C127.898 85.2535 130.907 85.1075 134.005 84.2896L187.651 66.5882V41Z" fill="white" fill-opacity="0.5"/>
</svg>
