<svg width="256" height="256" viewBox="0 0 256 256" fill="none" xmlns="http://www.w3.org/2000/svg">
<rect width="256" height="256" rx="70" fill="#1A5FF4"/>
<g clip-path="url(#clip0_143_103)">
<mask id="mask0_143_103" style="mask-type:luminance" maskUnits="userSpaceOnUse" x="13" y="13" width="230" height="230">
<path d="M243 13H13V243H243V13Z" fill="white"/>
<path d="M99.4417 211.758V168.058C99.4417 160.839 102.221 154.706 107.779 149.658C113.274 144.547 120.014 141.992 128 141.992C135.986 141.992 142.726 144.547 148.221 149.658C153.779 154.706 156.558 160.839 156.558 168.058V211.758H99.4417Z" fill="black"/>
</mask>
<g mask="url(#mask0_143_103)">
<path d="M208.308 128.671C190.803 111.996 173.233 95.3528 155.6 78.7417L138.158 62.45C135.219 59.7028 131.801 58.3292 127.904 58.3292C124.007 58.3292 120.589 59.7028 117.65 62.45L47.9792 128.671C46.7653 129.885 45.8389 131.258 45.2 132.792C44.5611 134.325 44.2417 135.858 44.2417 137.392V204.571C44.2417 208.596 45.2 212.237 47.1167 215.496C49.0334 218.818 51.6528 221.438 54.975 223.354C58.2973 225.271 61.9389 226.229 65.9 226.229H190.292C194.125 226.229 197.703 225.271 201.025 223.354C204.347 221.438 206.967 218.818 208.883 215.496C210.8 212.237 211.758 208.596 211.758 204.571V137.2C211.758 135.539 211.439 133.974 210.8 132.504C210.161 131.035 209.331 129.757 208.308 128.671Z" fill="white" fill-opacity="0.901961"/>
</g>
<path d="M27.2792 122.921C28.4931 124.135 30.1862 124.806 32.3584 124.933C34.4667 124.997 36.1278 124.422 37.3417 123.208L114.679 49.8C118.513 46.0945 122.985 44.2417 128.096 44.2417C133.271 44.2417 137.775 46.0945 141.608 49.8L218.85 122.921C220.256 124.326 221.949 125.029 223.929 125.029C225.91 125.029 227.603 124.263 229.008 122.729C230.222 121.324 230.829 119.631 230.829 117.65C230.829 115.669 230.126 113.976 228.721 112.571L151.479 39.45C147.199 35.2972 142.215 32.4861 136.529 31.0167C130.843 29.6111 125.157 29.6111 119.471 31.0167C113.785 32.4861 108.801 35.2972 104.521 39.45L27.4709 112.571C25.9376 113.976 25.1709 115.669 25.1709 117.65C25.1709 119.631 25.8737 121.388 27.2792 122.921Z" fill="white" fill-opacity="0.5"/>
<path d="M156.558 168.058C156.558 160.839 153.779 154.706 148.221 149.658C142.726 144.547 135.986 141.992 128 141.992C120.014 141.992 113.274 144.547 107.779 149.658C102.221 154.706 99.4417 160.839 99.4417 168.058V211.758H156.558V168.058Z" fill="white" fill-opacity="0.5"/>
</g>
<defs>
<clipPath id="clip0_143_103">
<rect width="230" height="230" fill="white" transform="translate(13 13)"/>
</clipPath>
</defs>
</svg>
